<svg width="248" height="104" viewBox="0 0 248 104" fill="none" xmlns="http://www.w3.org/2000/svg">
<path d="M39.25 103.758C36.0156 103.758 32.7812 103.453 29.5469 102.844C26.3594 102.234 23.3125 101.18 20.4062 99.6797C17.5469 98.1797 14.875 96.1641 12.3906 93.6328C9.90625 91.0547 7.75 87.8203 5.92188 83.9297C4.09375 79.9922 2.66406 75.3281 1.63281 69.9375C0.601562 64.5469 0.0859375 58.2422 0.0859375 51.0234C0.0859375 44.0859 0.671875 38.0156 1.84375 32.8125C3.01562 27.5625 4.58594 23.0391 6.55469 19.2422C8.52344 15.4453 10.8203 12.3281 13.4453 9.89062C16.0703 7.40625 18.8359 5.4375 21.7422 3.98438C24.6484 2.53125 27.6016 1.52344 30.6016 0.960938C33.6016 0.351562 36.4844 0.046875 39.25 0.046875C43.9375 0.046875 48.0156 0.28125 51.4844 0.75C54.9531 1.21875 57.8594 1.73438 60.2031 2.29688C62.9219 2.95312 65.2422 3.70312 67.1641 4.54688V16.6406C65.2422 16.5 63.1797 16.3594 60.9766 16.2188C59.1016 16.125 56.9453 16.0312 54.5078 15.9375C52.1172 15.7969 49.6094 15.7266 46.9844 15.7266C44.5938 15.7266 42.2031 15.8203 39.8125 16.0078C37.4688 16.1953 35.1953 16.6875 32.9922 17.4844C30.8359 18.2344 28.8203 19.3594 26.9453 20.8594C25.0703 22.3594 23.4297 24.4219 22.0234 27.0469C20.6641 29.625 19.5859 32.8594 18.7891 36.75C18.0391 40.6406 17.6641 45.3516 17.6641 50.8828C17.6641 56.6953 18.0625 61.6641 18.8594 65.7891C19.6562 69.9141 20.7578 73.3594 22.1641 76.125C23.5703 78.8906 25.2109 81.0703 27.0859 82.6641C28.9609 84.2578 31 85.4766 33.2031 86.3203C35.4062 87.1172 37.7031 87.6328 40.0938 87.8672C42.4844 88.0547 44.875 88.1484 47.2656 88.1484C50.3594 88.1484 53.1719 88.1016 55.7031 88.0078C58.2344 87.9141 60.3906 87.8203 62.1719 87.7266C64.2812 87.5859 66.1797 87.4453 67.8672 87.3047V99.3984C65.8047 100.242 63.3672 100.969 60.5547 101.578C58.1172 102.141 55.1172 102.633 51.5547 103.055C48.0391 103.523 43.9375 103.758 39.25 103.758Z" fill="url(#paint0_linear_203_4)"/>
<path d="M87.7656 1.66406H123.766C127.469 1.66406 131.008 1.92188 134.383 2.4375C137.805 2.95312 140.969 3.86719 143.875 5.17969C146.781 6.49219 149.43 8.32031 151.82 10.6641C154.211 13.0078 156.25 16.0078 157.938 19.6641C159.625 23.3203 160.914 27.7266 161.805 32.8828C162.742 38.0391 163.211 44.0859 163.211 51.0234C163.211 58.1953 162.789 64.4531 161.945 69.7969C161.102 75.0938 159.883 79.6406 158.289 83.4375C156.695 87.1875 154.75 90.2812 152.453 92.7188C150.156 95.1094 147.531 97.0078 144.578 98.4141C141.672 99.7734 138.461 100.711 134.945 101.227C131.477 101.742 127.75 102 123.766 102H87.7656V1.66406ZM119.195 86.3203C121.586 86.3203 123.906 86.2734 126.156 86.1797C128.406 86.0391 130.492 85.6172 132.414 84.9141C134.383 84.2109 136.164 83.1562 137.758 81.75C139.398 80.2969 140.781 78.2578 141.906 75.6328C143.078 73.0078 143.969 69.7031 144.578 65.7188C145.234 61.6875 145.562 56.7422 145.562 50.8828C145.562 45.4453 145.258 40.8516 144.648 37.1016C144.039 33.3047 143.172 30.1641 142.047 27.6797C140.922 25.1953 139.562 23.2734 137.969 21.9141C136.422 20.5078 134.664 19.4766 132.695 18.8203C130.727 18.1172 128.594 17.6953 126.297 17.5547C124.047 17.4141 121.68 17.3438 119.195 17.3438H104.641V86.3203H119.195Z" fill="url(#paint1_linear_203_4)"/>
<path d="M218.547 103.758C215.312 103.758 212.078 103.453 208.844 102.844C205.656 102.234 202.609 101.18 199.703 99.6797C196.844 98.1797 194.172 96.1641 191.688 93.6328C189.203 91.0547 187.047 87.8203 185.219 83.9297C183.391 79.9922 181.961 75.3281 180.93 69.9375C179.898 64.5469 179.383 58.2422 179.383 51.0234C179.383 44.0859 179.969 38.0156 181.141 32.8125C182.312 27.5625 183.883 23.0391 185.852 19.2422C187.82 15.4453 190.117 12.3281 192.742 9.89062C195.367 7.40625 198.133 5.4375 201.039 3.98438C203.945 2.53125 206.898 1.52344 209.898 0.960938C212.898 0.351562 215.781 0.046875 218.547 0.046875C223.234 0.046875 227.312 0.28125 230.781 0.75C234.25 1.21875 237.156 1.73438 239.5 2.29688C242.219 2.95312 244.539 3.70312 246.461 4.54688V16.6406C244.539 16.5 242.477 16.3594 240.273 16.2188C238.398 16.125 236.242 16.0312 233.805 15.9375C231.414 15.7969 228.906 15.7266 226.281 15.7266C223.891 15.7266 221.5 15.8203 219.109 16.0078C216.766 16.1953 214.492 16.6875 212.289 17.4844C210.133 18.2344 208.117 19.3594 206.242 20.8594C204.367 22.3594 202.727 24.4219 201.32 27.0469C199.961 29.625 198.883 32.8594 198.086 36.75C197.336 40.6406 196.961 45.3516 196.961 50.8828C196.961 56.6953 197.359 61.6641 198.156 65.7891C198.953 69.9141 200.055 73.3594 201.461 76.125C202.867 78.8906 204.508 81.0703 206.383 82.6641C208.258 84.2578 210.297 85.4766 212.5 86.3203C214.703 87.1172 217 87.6328 219.391 87.8672C221.781 88.0547 224.172 88.1484 226.562 88.1484C229.656 88.1484 232.469 88.1016 235 88.0078C237.531 87.9141 239.688 87.8203 241.469 87.7266C243.578 87.5859 245.477 87.4453 247.164 87.3047V99.3984C245.102 100.242 242.664 100.969 239.852 101.578C237.414 102.141 234.414 102.633 230.852 103.055C227.336 103.523 223.234 103.758 218.547 103.758Z" fill="url(#paint2_linear_203_4)"/>
<defs>
<linearGradient id="paint0_linear_203_4" x1="123.5" y1="-43" x2="123.5" y2="137" gradientUnits="userSpaceOnUse">
<stop offset="0.291667" stop-color="#00CECE"/>
<stop offset="1" stop-color="#03B3FF"/>
</linearGradient>
<linearGradient id="paint1_linear_203_4" x1="123.5" y1="-43" x2="123.5" y2="137" gradientUnits="userSpaceOnUse">
<stop offset="0.291667" stop-color="#00CECE"/>
<stop offset="1" stop-color="#03B3FF"/>
</linearGradient>
<linearGradient id="paint2_linear_203_4" x1="123.5" y1="-43" x2="123.5" y2="137" gradientUnits="userSpaceOnUse">
<stop offset="0.291667" stop-color="#00CECE"/>
<stop offset="1" stop-color="#03B3FF"/>
</linearGradient>
</defs>
</svg>
